<svg xmlns="http://www.w3.org/2000/svg" width="313" height="209" viewBox="0 0 313 209">
  <path fill="#303947" fill-rule="evenodd" d="M296.032 115.178a8.279 8.279 0 0 1 6.208-9.941 8.291 8.291 0 1 1-6.208 9.941zm-7.947-8.458a7.607 7.607 0 0 1-.121 3.926c-.883 2.192-1.977 4.2-3.172 6.104l-44.585 10.296c-8.719-5.406-15.61-14.662-18.264-26.15-4.884-21.166 6.355-41.892 25.067-46.212 18.71-4.32 37.902 9.38 42.789 30.546.087.377.16.761.22 1.141l.078.443c.22 3.122-1.626 5.722-4.362 6.353l-3.332.78-5.949 1.374-36.397 8.403c4.495 8.815 12.936 13.609 20.988 11.752 5.095-1.176 9.238-4.823 11.651-10.262 1.142-2.29 3.16-3.902 5.597-4.463 4.407-1.017 8.802 1.658 9.792 5.969zm-39.6-35.754c-6.25 2.748-10.451 9.412-11.091 17.247l34.251-7.905c-4-6.766-10.702-10.913-17.448-10.648a15.974 15.974 0 0 0-2.96.384c-.902.207-1.801.508-2.752.922zm-29.1 33.593c.021.08.022.162.038.25l5.786 24.973c0 .012.006.028.01.041l-19.383 4.477c-.001-.015-.01-.031-.015-.044l-5.823-25.221-10.82-46.875-11.853-51.333c-.297-5.038 2.998-9.496 7.77-10.598 4.767-1.1 9.688 1.457 11.45 5.953l22.84 98.377zm-27.055 30.105c-.032.066-.063.138-.1.208-4.5 8.919-12.266 15.678-22.127 17.957-6.503 1.5-13.04.818-19.027-1.522l10.42 45.128c1.213 5.269-2.077 10.524-7.347 11.74-5.28 1.22-10.54-2.062-11.753-7.33l-11.314-49.008-7.687-33.296-1.843-7.98-.025.006c-1.542-5.818-7.412-9.407-13.325-8.042-5.905 1.363-9.61 7.162-8.44 13.067l-.028.006 9.517 41.223c.004.017.005.032.01.052l-19.094 4.41c-.005-.02-.013-.033-.017-.052l-9.517-41.225-.039.009c-1.535-5.82-7.408-9.409-13.312-8.045-5.909 1.364-9.605 7.163-8.44 13.067l-.034.01 9.515 41.223c.004.019.005.032.01.052l-55.889 12.905c-3.975-3.1-6.912-7.36-8.084-12.448-1.777-7.684.82-15.452 6.267-21.122 2.225-2.32 4.959-4.225 8.036-5.7l21.145-10.102-.802-3.464c-.547-2.372-4.53-6.775-12.09-5.03-11.153 2.577-6.984 13.97-15.368 15.908-4.776 1.103-9.542-1.876-10.645-6.646-.319-1.38-.244-2.738.07-4.034 2.456-9.462 10.968-17.635 22.464-20.29 8.694-2.007 17.261-.426 23.667 3.675 3.273-6.34 9.202-11.263 16.714-12.997 8.552-1.974 17.078.652 22.996 6.247 2.869-7.624 9.386-13.72 17.926-15.692 9.54-2.205 19.04 1.328 24.936 8.32 4.368-9.614 12.435-16.948 22.804-19.344 17.938-4.142 36.174 7.957 42.095 27.301.299.984.59 1.971.822 2.986.318 1.377.558 2.758.747 4.124.047.398.06.79.103 1.178.106.99.2 1.97.234 2.947.013.421.01.83 0 1.253.01.951.001 1.9-.054 2.834-.019.378-.065.754-.1 1.137-.08.973-.194 1.946-.342 2.898-.052.313-.11.629-.172.945a43.012 43.012 0 0 1-.66 3.007c-.069.246-.139.472-.196.72a38.9 38.9 0 0 1-1.025 3.125c-.053.159-.12.314-.17.463a38.045 38.045 0 0 1-1.432 3.238zm-147.91 17l-1.592-6.958s-12.114 6.396-16.429 8.624c-4.316 2.232-6.696 6.197-5.868 9.786 1.47 6.369 7.448 6.12 12.405 4.975 8.01-1.849 13.15-9.2 11.484-16.427zm111.668-60.333c-8.603 1.986-13.923 11.63-13.108 22.632.107 1.555.342 3.137.71 4.731 2.967 12.845 13.325 21.434 23.142 19.165 9.824-2.268 15.366-14.525 12.401-27.368a30.66 30.66 0 0 0-1.425-4.568c-4.093-10.246-13.109-16.58-21.72-14.592z"/>
</svg>
